# xmcd CD database file
#
# Track frame offsets:
#	150
#	40942
#	72225
#	113195
#	147052
#	209035
#
# Disc length: 3143 seconds
#
# Revision: 0
# Processed by: cddbd v1.4PL0 Copyright (c) Steve Scherf et al.
# Submitted via: CDex 1.50
#
DISCID=590c4506
DTITLE=Lars Møller Group - Cross Current
DYEAR=1995
DGENRE=Jazz
TTITLE0=Talk of the Devil
TTITLE1=Marits Drøm
TTITLE2=3 in 4
TTITLE3=Footprints
TTITLE4=Purple Twilight
TTITLE5=Torn Lovers
EXTD=YEAR: 1995
EXTT0=
EXTT1=
EXTT2=
EXTT3=
EXTT4=
EXTT5=
PLAYORDER=
